<svg id="Camada_1" data-name="Camada 1" xmlns="http://www.w3.org/2000/svg" xmlns:xlink="http://www.w3.org/1999/xlink" viewBox="0 0 881 285.78"><defs><style>.cls-2{fill:url(#Gradiente_sem_nome_159);}.cls-3{font-size:50.67px;fill:#2f2f2f;font-family:Montserrat-SemiBoldItalic, Montserrat;font-weight:700;font-style:italic;}.cls-4{letter-spacing:-0.01em;}.cls-5{letter-spacing:-0.02em;}.cls-6{letter-spacing:-0.01em;}.cls-7{letter-spacing:-0.01em;}.cls-8{letter-spacing:-0.01em;}.cls-9{letter-spacing:0em;}.cls-10{letter-spacing:0em;}.cls-11{letter-spacing:-0.04em;}</style><linearGradient id="Gradiente_sem_nome_161" x1="315.9" y1="-114.84" x2="562.35" y2="312.02" gradientUnits="userSpaceOnUse"><stop offset="0" stop-color="#300000"/><stop offset="0.09" stop-color="#500000" stop-opacity="0.6"/><stop offset="0.21" stop-color="#6b0000" stop-opacity="0.27"/><stop offset="0.35" stop-color="#7b0000" stop-opacity="0.06"/><stop offset="0.52" stop-color="maroon" stop-opacity="0"/><stop offset="0.68" stop-color="#7b0000" stop-opacity="0.06"/><stop offset="0.79" stop-color="#6c0000" stop-opacity="0.25"/><stop offset="0.88" stop-color="#530000" stop-opacity="0.57"/><stop offset="0.96" stop-color="#300000"/></linearGradient><linearGradient id="Gradiente_sem_nome_159" x1="299.79" y1="350.03" x2="586.15" y2="-145.95" gradientUnits="userSpaceOnUse"><stop offset="0" stop-color="#300000"/><stop offset="0.01" stop-color="#340000" stop-opacity="0.99"/><stop offset="0.12" stop-color="#500" stop-opacity="0.91"/><stop offset="0.23" stop-color="#6d0000" stop-opacity="0.85"/><stop offset="0.36" stop-color="#7c0000" stop-opacity="0.81"/><stop offset="0.52" stop-color="maroon" stop-opacity="0.8"/><stop offset="0.67" stop-color="#7c0000" stop-opacity="0.81"/><stop offset="0.77" stop-color="#6f0000" stop-opacity="0.84"/><stop offset="0.86" stop-color="#580000" stop-opacity="0.9"/><stop offset="0.94" stop-color="#380000" stop-opacity="0.98"/><stop offset="0.96" stop-color="#300000"/></linearGradient></defs><title>Logo 366</title><path class="cls-1" d="M304.6,11.86Q294.69,18,282.09,26.42T255.25,44Q241,53.21,225.62,62.37T194.76,79.21a149.1,149.1,0,0,1,22.19,7,78.34,78.34,0,0,1,18.17,10.19,47.77,47.77,0,0,1,12.18,13.36,31.38,31.38,0,0,1,4.44,16.42,43.88,43.88,0,0,1-5.88,22,71.3,71.3,0,0,1-16.31,19.17,119.93,119.93,0,0,1-24.78,15.82,192.26,192.26,0,0,1-31.49,11.92,259.51,259.51,0,0,1-36.34,7.55,287.73,287.73,0,0,1-39.23,2.64,223,223,0,0,1-37.06-2.94,131.66,131.66,0,0,1-30.45-8.57q-13-5.62-20.55-13.9a27.3,27.3,0,0,1-7.53-18.93q0-9.23,7.43-17.86t19.82-15.46L37,132.18a58.53,58.53,0,0,0-16.72,13.3q-6.19,7.43-6.2,15.34a22.79,22.79,0,0,0,5.47,15,42.33,42.33,0,0,0,15.18,11,93.31,93.31,0,0,0,23.33,6.71,183.39,183.39,0,0,0,30.15,2.28,248.87,248.87,0,0,0,36-2.58,230.38,230.38,0,0,0,33.34-7.31,179.43,179.43,0,0,0,28.91-11.38,110.42,110.42,0,0,0,22.71-14.86,67.27,67.27,0,0,0,14.87-17.74,40.14,40.14,0,0,0,5.36-20,27,27,0,0,0-3.2-12.94,37.54,37.54,0,0,0-9-10.9,58.13,58.13,0,0,0-13.83-8.57,95.12,95.12,0,0,0-17.76-5.93,233.69,233.69,0,0,1-31,11.56A102.83,102.83,0,0,1,126,99.58a35.51,35.51,0,0,1-8.67-.9,21.36,21.36,0,0,1-5.78-2.27,9.9,9.9,0,0,1-3.31-3,5.72,5.72,0,0,1-1-3q0-2.76,2.69-5.58a23.1,23.1,0,0,1,8.36-5,69.86,69.86,0,0,1,14.66-3.59,144.6,144.6,0,0,1,21.57-1.38,192.48,192.48,0,0,1,27.47,2q12.58-6.11,25.7-13.54t26-15.34q12.9-7.91,25.19-15.81t23.43-15a349.78,349.78,0,0,1-37.58,4.49q-19.2,1.26-38,1.26-21.06,0-40-1.08t-33.76-2.4Q118.16,18.1,109.07,17T98.75,15.58l2.89-6.71c.13,0,3.13.4,9,1.2s13.59,1.67,23.23,2.63,20.75,1.82,33.34,2.58,25.84,1.14,39.75,1.14q23.33,0,46.87-2A270.08,270.08,0,0,0,298.2,7Zm-177,81.61a76.22,76.22,0,0,0,20.65-3.23,180.72,180.72,0,0,0,23.95-8.87,136.94,136.94,0,0,0-17.34-1.08,130.4,130.4,0,0,0-15,.78,79.33,79.33,0,0,0-11.56,2.1,26.88,26.88,0,0,0-7.44,3q-2.58,1.68-2.58,3.48c0,.8.72,1.63,2.17,2.51S124.35,93.47,127.65,93.47Z"/><path class="cls-1" d="M572.19,52.13a17.46,17.46,0,0,0,1.75-4,24.93,24.93,0,0,0,1.35-8.74,22.12,22.12,0,0,0-4.24-13.13,35.37,35.37,0,0,0-11.87-10.18A66.73,66.73,0,0,0,541,9.53a105.64,105.64,0,0,0-22.92-2.34,185,185,0,0,0-35.2,3.54,264,264,0,0,0-36.55,9.88,305.53,305.53,0,0,0-36,15.22,311.29,311.29,0,0,0-33.75,19.53A258.5,258.5,0,0,0,347,78.19a182,182,0,0,0-23.33,25,119.41,119.41,0,0,0-15.38,26.18,67.78,67.78,0,0,0-5.58,26.37,54.37,54.37,0,0,0,4,21.39,41.92,41.92,0,0,0,12.28,16.29q8.26,6.78,21.06,10.37t30.56,3.59a167.91,167.91,0,0,0,41.4-5.09,199.82,199.82,0,0,0,37.68-13.54,195.57,195.57,0,0,0,32.11-19.29,176.06,176.06,0,0,0,25.08-22.41,105.28,105.28,0,0,0,16.31-22.95Q529,112.77,529,103.3a28.45,28.45,0,0,0-4.65-15.88,38.11,38.11,0,0,0-13.32-12.1A73.41,73.41,0,0,0,490,67.65,131.35,131.35,0,0,0,462.14,65a201,201,0,0,0-34.59,3.12,191.4,191.4,0,0,0-35.2,9.7,170.17,170.17,0,0,0-33,16.9,129.29,129.29,0,0,0-27.88,24.69l-9.7-2.76a134.62,134.62,0,0,1,30-26.3,187.92,187.92,0,0,1,35.93-18,208.2,208.2,0,0,1,38.5-10.37,227.67,227.67,0,0,1,37.58-3.29A152.44,152.44,0,0,1,498,62.19,92,92,0,0,1,524.8,72.56a52.29,52.29,0,0,1,17.55,16.66,40.91,40.91,0,0,1,6.3,22.47q0,10.55-6.09,22.29a102.77,102.77,0,0,1-17,23.24,160.74,160.74,0,0,1-26.43,22,200.17,200.17,0,0,1-34.38,18.46,231.69,231.69,0,0,1-40.57,12.7,211.24,211.24,0,0,1-45.22,4.73,169.22,169.22,0,0,1-39.13-4.19q-17.66-4.2-30.24-12.34A58.59,58.59,0,0,1,290,178.25q-6.92-12.15-6.91-28.1,0-18.45,9.39-36.73a146.24,146.24,0,0,1,25.6-34.93,228.59,228.59,0,0,1,38-31,288.44,288.44,0,0,1,46.77-24.92A302,302,0,0,1,454.81,6a245.52,245.52,0,0,1,53.37-6q20.64,0,35.41,3.35t24.16,8.87q9.39,5.52,13.73,12.71a28.39,28.39,0,0,1,4.34,14.86,31.62,31.62,0,0,1-.83,7.07,37.4,37.4,0,0,1-2.48,7.19Z"/><path class="cls-1" d="M864.55,52.13a17.24,17.24,0,0,0,1.76-4,25.18,25.18,0,0,0,1.34-8.74,22.11,22.11,0,0,0-4.23-13.13,35.47,35.47,0,0,0-11.87-10.18,66.85,66.85,0,0,0-18.17-6.59,105.64,105.64,0,0,0-22.92-2.34,185.17,185.17,0,0,0-35.21,3.54,263.48,263.48,0,0,0-36.54,9.88,305.53,305.53,0,0,0-36,15.22,312.4,312.4,0,0,0-33.76,19.53A258.37,258.37,0,0,0,639.4,78.19a182.7,182.7,0,0,0-23.34,25,119.8,119.8,0,0,0-15.38,26.18,67.77,67.77,0,0,0-5.57,26.37,54.55,54.55,0,0,0,4,21.39,42,42,0,0,0,12.29,16.29q8.25,6.78,21.06,10.37T663,207.43a167.89,167.89,0,0,0,41.39-5.09,200.17,200.17,0,0,0,37.69-13.54,195.47,195.47,0,0,0,32.1-19.29,175.62,175.62,0,0,0,25.09-22.41,105.63,105.63,0,0,0,16.31-22.95q5.77-11.39,5.78-20.85a28.45,28.45,0,0,0-4.65-15.88,38,38,0,0,0-13.31-12.1,73.41,73.41,0,0,0-21.06-7.67A131.39,131.39,0,0,0,754.5,65a200.79,200.79,0,0,0-34.58,3.12,191.18,191.18,0,0,0-35.2,9.7,170.25,170.25,0,0,0-33,16.9,129.48,129.48,0,0,0-27.87,24.69l-9.71-2.76a134.85,134.85,0,0,1,30-26.3,188.5,188.5,0,0,1,35.93-18,208.52,208.52,0,0,1,38.51-10.37,227.58,227.58,0,0,1,37.58-3.29,152.56,152.56,0,0,1,34.17,3.59,92.14,92.14,0,0,1,26.84,10.37,52.29,52.29,0,0,1,17.55,16.66,40.91,40.91,0,0,1,6.3,22.47q0,10.55-6.1,22.29a102.47,102.47,0,0,1-17,23.24,160.32,160.32,0,0,1-26.43,22,199.43,199.43,0,0,1-34.38,18.46,231.16,231.16,0,0,1-40.57,12.7,211.11,211.11,0,0,1-45.22,4.73,169.19,169.19,0,0,1-39.12-4.19q-17.65-4.2-30.25-12.34a58.56,58.56,0,0,1-19.51-20.32q-6.92-12.15-6.92-28.1,0-18.45,9.4-36.73a146,146,0,0,1,25.6-34.93,228.18,228.18,0,0,1,38-31,288,288,0,0,1,46.77-24.92A301.93,301.93,0,0,1,747.17,6a245.68,245.68,0,0,1,53.38-6Q821.19,0,836,3.35t24.15,8.87q9.4,5.52,13.73,12.71a28.3,28.3,0,0,1,4.34,14.86,31.62,31.62,0,0,1-.83,7.07,37.35,37.35,0,0,1-2.47,7.19Z"/><path class="cls-2" d="M304.6,11.86Q294.69,18,282.09,26.42T255.25,44Q241,53.21,225.62,62.37T194.76,79.21a149.1,149.1,0,0,1,22.19,7,78.34,78.34,0,0,1,18.17,10.19,47.77,47.77,0,0,1,12.18,13.36,31.38,31.38,0,0,1,4.44,16.42,43.88,43.88,0,0,1-5.88,22,71.3,71.3,0,0,1-16.31,19.17,119.93,119.93,0,0,1-24.78,15.82,192.26,192.26,0,0,1-31.49,11.92,259.51,259.51,0,0,1-36.34,7.55,287.73,287.73,0,0,1-39.23,2.64,223,223,0,0,1-37.06-2.94,131.66,131.66,0,0,1-30.45-8.57q-13-5.62-20.55-13.9a27.3,27.3,0,0,1-7.53-18.93q0-9.23,7.43-17.86t19.82-15.46L37,132.18a58.53,58.53,0,0,0-16.72,13.3q-6.19,7.43-6.2,15.34a22.79,22.79,0,0,0,5.47,15,42.33,42.33,0,0,0,15.18,11,93.31,93.31,0,0,0,23.33,6.71,183.39,183.39,0,0,0,30.15,2.28,248.87,248.87,0,0,0,36-2.58,230.38,230.38,0,0,0,33.34-7.31,179.43,179.43,0,0,0,28.91-11.38,110.42,110.42,0,0,0,22.71-14.86,67.27,67.27,0,0,0,14.87-17.74,40.14,40.14,0,0,0,5.36-20,27,27,0,0,0-3.2-12.94,37.54,37.54,0,0,0-9-10.9,58.13,58.13,0,0,0-13.83-8.57,95.12,95.12,0,0,0-17.76-5.93,233.69,233.69,0,0,1-31,11.56A102.83,102.83,0,0,1,126,99.58a35.51,35.51,0,0,1-8.67-.9,21.36,21.36,0,0,1-5.78-2.27,9.9,9.9,0,0,1-3.31-3,5.72,5.72,0,0,1-1-3q0-2.76,2.69-5.58a23.1,23.1,0,0,1,8.36-5,69.86,69.86,0,0,1,14.66-3.59,144.6,144.6,0,0,1,21.57-1.38,192.48,192.48,0,0,1,27.47,2q12.58-6.11,25.7-13.54t26-15.34q12.9-7.91,25.19-15.81t23.43-15a349.78,349.78,0,0,1-37.58,4.49q-19.2,1.26-38,1.26-21.06,0-40-1.08t-33.76-2.4Q118.16,18.1,109.07,17T98.75,15.58l2.89-6.71c.13,0,3.13.4,9,1.2s13.59,1.67,23.23,2.63,20.75,1.82,33.34,2.58,25.84,1.14,39.75,1.14q23.33,0,46.87-2A270.08,270.08,0,0,0,298.2,7Zm-177,81.61a76.22,76.22,0,0,0,20.65-3.23,180.72,180.72,0,0,0,23.95-8.87,136.94,136.94,0,0,0-17.34-1.08,130.4,130.4,0,0,0-15,.78,79.33,79.33,0,0,0-11.56,2.1,26.88,26.88,0,0,0-7.44,3q-2.58,1.68-2.58,3.48c0,.8.72,1.63,2.17,2.51S124.35,93.47,127.65,93.47Z"/><path class="cls-2" d="M572.19,52.13a17.46,17.46,0,0,0,1.75-4,24.93,24.93,0,0,0,1.35-8.74,22.12,22.12,0,0,0-4.24-13.13,35.37,35.37,0,0,0-11.87-10.18A66.73,66.73,0,0,0,541,9.53a105.64,105.64,0,0,0-22.92-2.34,185,185,0,0,0-35.2,3.54,264,264,0,0,0-36.55,9.88,305.53,305.53,0,0,0-36,15.22,311.29,311.29,0,0,0-33.75,19.53A258.5,258.5,0,0,0,347,78.19a182,182,0,0,0-23.33,25,119.41,119.41,0,0,0-15.38,26.18,67.78,67.78,0,0,0-5.58,26.37,54.37,54.37,0,0,0,4,21.39,41.92,41.92,0,0,0,12.28,16.29q8.26,6.78,21.06,10.37t30.56,3.59a167.91,167.91,0,0,0,41.4-5.09,199.82,199.82,0,0,0,37.68-13.54,195.57,195.57,0,0,0,32.11-19.29,176.06,176.06,0,0,0,25.08-22.41,105.28,105.28,0,0,0,16.31-22.95Q529,112.77,529,103.3a28.45,28.45,0,0,0-4.65-15.88,38.11,38.11,0,0,0-13.32-12.1A73.41,73.41,0,0,0,490,67.65,131.35,131.35,0,0,0,462.14,65a201,201,0,0,0-34.59,3.12,191.4,191.4,0,0,0-35.2,9.7,170.17,170.17,0,0,0-33,16.9,129.29,129.29,0,0,0-27.88,24.69l-9.7-2.76a134.62,134.62,0,0,1,30-26.3,187.92,187.92,0,0,1,35.93-18,208.2,208.2,0,0,1,38.5-10.37,227.67,227.67,0,0,1,37.58-3.29A152.44,152.44,0,0,1,498,62.19,92,92,0,0,1,524.8,72.56a52.29,52.29,0,0,1,17.55,16.66,40.91,40.91,0,0,1,6.3,22.47q0,10.55-6.09,22.29a102.77,102.77,0,0,1-17,23.24,160.74,160.74,0,0,1-26.43,22,200.17,200.17,0,0,1-34.38,18.46,231.69,231.69,0,0,1-40.57,12.7,211.24,211.24,0,0,1-45.22,4.73,169.22,169.22,0,0,1-39.13-4.19q-17.66-4.2-30.24-12.34A58.59,58.59,0,0,1,290,178.25q-6.92-12.15-6.91-28.1,0-18.45,9.39-36.73a146.24,146.24,0,0,1,25.6-34.93,228.59,228.59,0,0,1,38-31,288.44,288.44,0,0,1,46.77-24.92A302,302,0,0,1,454.81,6a245.52,245.52,0,0,1,53.37-6q20.64,0,35.41,3.35t24.16,8.87q9.39,5.52,13.73,12.71a28.39,28.39,0,0,1,4.34,14.86,31.62,31.62,0,0,1-.83,7.07,37.4,37.4,0,0,1-2.48,7.19Z"/><path class="cls-2" d="M864.55,52.13a17.24,17.24,0,0,0,1.76-4,25.18,25.18,0,0,0,1.34-8.74,22.11,22.11,0,0,0-4.23-13.13,35.47,35.47,0,0,0-11.87-10.18,66.85,66.85,0,0,0-18.17-6.59,105.64,105.64,0,0,0-22.92-2.34,185.17,185.17,0,0,0-35.21,3.54,263.48,263.48,0,0,0-36.54,9.88,305.53,305.53,0,0,0-36,15.22,312.4,312.4,0,0,0-33.76,19.53A258.37,258.37,0,0,0,639.4,78.19a182.7,182.7,0,0,0-23.34,25,119.8,119.8,0,0,0-15.38,26.18,67.77,67.77,0,0,0-5.57,26.37,54.55,54.55,0,0,0,4,21.39,42,42,0,0,0,12.29,16.29q8.25,6.78,21.06,10.37T663,207.43a167.89,167.89,0,0,0,41.39-5.09,200.17,200.17,0,0,0,37.69-13.54,195.47,195.47,0,0,0,32.1-19.29,175.62,175.62,0,0,0,25.09-22.41,105.63,105.63,0,0,0,16.31-22.95q5.77-11.39,5.78-20.85a28.45,28.45,0,0,0-4.65-15.88,38,38,0,0,0-13.31-12.1,73.41,73.41,0,0,0-21.06-7.67A131.39,131.39,0,0,0,754.5,65a200.79,200.79,0,0,0-34.58,3.12,191.18,191.18,0,0,0-35.2,9.7,170.25,170.25,0,0,0-33,16.9,129.48,129.48,0,0,0-27.87,24.69l-9.71-2.76a134.85,134.85,0,0,1,30-26.3,188.5,188.5,0,0,1,35.93-18,208.52,208.52,0,0,1,38.51-10.37,227.58,227.58,0,0,1,37.58-3.29,152.56,152.56,0,0,1,34.17,3.59,92.14,92.14,0,0,1,26.84,10.37,52.29,52.29,0,0,1,17.55,16.66,40.91,40.91,0,0,1,6.3,22.47q0,10.55-6.1,22.29a102.47,102.47,0,0,1-17,23.24,160.32,160.32,0,0,1-26.43,22,199.43,199.43,0,0,1-34.38,18.46,231.16,231.16,0,0,1-40.57,12.7,211.11,211.11,0,0,1-45.22,4.73,169.19,169.19,0,0,1-39.12-4.19q-17.65-4.2-30.25-12.34a58.56,58.56,0,0,1-19.51-20.32q-6.92-12.15-6.92-28.1,0-18.45,9.4-36.73a146,146,0,0,1,25.6-34.93,228.18,228.18,0,0,1,38-31,288,288,0,0,1,46.77-24.92A301.93,301.93,0,0,1,747.17,6a245.68,245.68,0,0,1,53.38-6Q821.19,0,836,3.35t24.15,8.87q9.4,5.52,13.73,12.71a28.3,28.3,0,0,1,4.34,14.86,31.62,31.62,0,0,1-.83,7.07,37.35,37.35,0,0,1-2.47,7.19Z"/><text class="cls-3" transform="translate(0 272.35) scale(1.41 1)">E<tspan class="cls-4" x="33.95" y="0">S</tspan><tspan x="65.32" y="0">TÉTI</tspan><tspan class="cls-5" x="176.44" y="0">C</tspan><tspan x="212.52" y="0">A </tspan><tspan class="cls-5" x="264.46" y="0">A</tspan><tspan class="cls-6" x="301.66" y="0">U</tspan><tspan class="cls-7" x="340.98" y="0">T</tspan><tspan x="370.98" y="0">OM</tspan><tspan class="cls-8" x="462.04" y="0">O</tspan><tspan class="cls-9" x="504.2" y="0">T</tspan><tspan class="cls-10" x="534.71" y="0">I</tspan><tspan class="cls-11" x="550.62" y="0">V</tspan><tspan class="cls-9" x="585.68" y="0">A</tspan></text></svg>