<svg width="131" height="65" viewBox="0 0 131 65" fill="none" xmlns="http://www.w3.org/2000/svg">
<path d="M91.3344 24.2193V32.9152C91.3344 34.5529 92.0831 36.0752 93.3667 37.2285V40.181C93.3667 41.4496 94.5432 42.4645 96.0139 42.4645C97.4846 42.4645 98.6612 41.4496 98.6612 40.181V36.1675C98.6612 35.4063 98.2066 34.6913 97.4846 34.2761C96.9498 33.9762 96.629 33.4688 96.629 32.9152V24.2193C96.629 21.1746 99.5169 18.6835 103.047 18.6835H105.213C108.742 18.6835 111.63 21.1746 111.63 24.2193V32.9152C111.63 33.4688 111.309 33.9762 110.774 34.2761C110.026 34.6913 109.598 35.4063 109.598 36.1675V44.5404C109.598 45.5553 110.293 46.501 111.336 46.9393C112.593 47.4698 119.117 50.3069 125.161 54.5741C125.669 54.9431 125.963 55.4737 125.963 56.0734V59.7409H107.405C105.935 59.7409 104.758 60.7558 104.758 62.0244C104.758 63.293 105.935 64.3079 107.405 64.3079H128.61C130.081 64.3079 131.257 63.293 131.257 62.0244V56.0734C131.257 54.1128 130.268 52.2906 128.503 51.045C123.182 47.2853 117.486 44.5404 114.892 43.364V37.2055C116.176 36.0522 116.925 34.5298 116.925 32.8921V24.1963C116.925 18.6143 111.657 14.0934 105.213 14.0934H103.047C96.6022 14.1164 91.3344 18.6374 91.3344 24.2193Z" fill="#2C2F33"/>
<path d="M2.64734 64.308H24.1732C25.6439 64.308 26.8204 63.2931 26.8204 62.0245C26.8204 60.7559 25.6439 59.741 24.1732 59.741H5.29461V56.0735C5.29461 55.4969 5.58875 54.9433 6.09682 54.5742C12.1133 50.307 18.6647 47.4468 19.9215 46.9394C20.9911 46.5011 21.6596 45.5554 21.6596 44.5405V36.1676C21.6596 35.4064 21.205 34.6914 20.483 34.2762C19.9482 33.9763 19.6273 33.4689 19.6273 32.9153V24.2195C19.6273 21.1748 22.5153 18.6836 26.045 18.6836H28.2109C31.7406 18.6836 34.6286 21.1748 34.6286 24.2195V32.9153C34.6286 33.4689 34.3077 33.9763 33.7729 34.2762C33.0242 34.6914 32.5963 35.4064 32.5963 36.1676V40.3656C32.5963 41.6342 33.7729 42.6491 35.2436 42.6491C36.7143 42.6491 37.8909 41.6342 37.8909 40.3656V37.2286C39.1744 36.0753 39.9231 34.553 39.9231 32.9153V24.2195C39.9231 18.6375 34.6553 14.1166 28.2109 14.1166H26.045C19.5739 14.1166 14.3328 18.6606 14.3328 24.2195V32.9153C14.3328 34.553 15.0815 36.0753 16.365 37.2286V43.3872C13.7445 44.5636 8.07559 47.2854 2.7543 51.0682C1.01619 52.3138 6.10352e-05 54.136 6.10352e-05 56.0966V62.0245C6.10352e-05 63.2931 1.17663 64.308 2.64734 64.308Z" fill="#2C2F33"/>
<path d="M81.4322 24.3347V13.1016C81.4322 6.25103 74.9878 0.692139 67.046 0.692139H64.2382C56.2964 0.692139 49.852 6.25103 49.852 13.1016V24.3347C49.852 26.3645 50.8147 28.2559 52.4726 29.6399V38.2896C49.344 39.6736 41.6963 43.2718 34.5567 48.3464C32.4709 49.8226 31.2944 51.9908 31.2944 54.3204V62.0245C31.2944 63.2931 32.4709 64.308 33.9416 64.308H97.3158C98.7865 64.308 99.9631 63.2931 99.9631 62.0245V54.3204C99.9631 51.9908 98.7865 49.8226 96.7008 48.3464C89.5612 43.2949 81.9135 39.6736 78.7849 38.2896V29.6399C80.4695 28.279 81.4322 26.3645 81.4322 24.3347ZM93.3583 51.8754C94.214 52.4752 94.6953 53.3747 94.6953 54.3204V59.7409H36.6157V54.3204C36.6157 53.3747 37.097 52.4752 37.9527 51.8754C45.8143 46.2935 54.3444 42.5799 55.9755 41.8879C57.0719 41.4266 57.7939 40.4347 57.7939 39.3968V28.5558C57.7939 27.7946 57.3393 27.0796 56.6173 26.6644C55.7081 26.1339 55.1733 25.2804 55.1733 24.3578V13.1247C55.1733 8.78828 59.2646 5.28226 64.265 5.28226H67.0727C72.0998 5.28226 76.1644 8.81135 76.1644 13.1247V24.3578C76.1644 25.2804 75.6295 26.1569 74.7204 26.6644C73.9717 27.0796 73.5438 27.7946 73.5438 28.5558V39.3968C73.5438 40.4578 74.2658 41.4266 75.3621 41.8879C76.9666 42.5799 85.4967 46.3166 93.3583 51.8754Z" fill="#D80000"/>
</svg>
