<svg width="48" height="48" viewBox="0 0 48 48" fill="none" xmlns="http://www.w3.org/2000/svg">
<path d="M27.9999 18.6V24.4H33.1999C33.5999 24.4 33.7999 24.8 33.7999 25.2L32.9999 29C32.9999 29.2 32.5999 29.4 32.3999 29.4H27.9999V44H21.9999V29.6H18.5999C18.1999 29.6 17.9999 29.4 17.9999 29V25.2C17.9999 24.8 18.1999 24.6 18.5999 24.6H21.9999V18C21.9999 14.6 24.5999 12 27.9999 12H33.3999C33.7999 12 33.9999 12.2 33.9999 12.6V17.4C33.9999 17.8 33.7999 18 33.3999 18H28.5999C28.1999 18 27.9999 18.2 27.9999 18.6V18.6Z" stroke="#D80000" stroke-width="1.5" stroke-miterlimit="10" stroke-linecap="round"/>
<path d="M29.9999 44H17.9999C7.99994 44 3.99994 40 3.99994 30V18C3.99994 8 7.99994 4 17.9999 4H29.9999C39.9999 4 43.9999 8 43.9999 18V30C43.9999 40 39.9999 44 29.9999 44Z" stroke="#D80000" stroke-width="1.5" stroke-linecap="round" stroke-linejoin="round"/>
</svg>
