<svg width="48" height="48" viewBox="0 0 48 48" fill="none" xmlns="http://www.w3.org/2000/svg">
<path d="M17.9999 44H29.9999C39.9999 44 43.9999 40 43.9999 30V18C43.9999 8 39.9999 4 29.9999 4H17.9999C7.99994 4 3.99994 8 3.99994 18V30C3.99994 40 7.99994 44 17.9999 44Z" stroke="#D80000" stroke-width="1.5" stroke-linecap="round" stroke-linejoin="round"/>
<path d="M23.9999 31C24.9192 31 25.8294 30.8189 26.6787 30.4672C27.528 30.1154 28.2997 29.5998 28.9497 28.9497C29.5997 28.2997 30.1153 27.5281 30.4671 26.6788C30.8189 25.8295 30.9999 24.9193 30.9999 24C30.9999 23.0807 30.8189 22.1705 30.4671 21.3212C30.1153 20.4719 29.5997 19.7003 28.9497 19.0503C28.2997 18.4002 27.528 17.8846 26.6787 17.5328C25.8294 17.1811 24.9192 17 23.9999 17C22.1434 17 20.3629 17.7375 19.0502 19.0503C17.7374 20.363 16.9999 22.1435 16.9999 24C16.9999 25.8565 17.7374 27.637 19.0502 28.9497C20.3629 30.2625 22.1434 31 23.9999 31V31Z" stroke="#D80000" stroke-width="1.5" stroke-linecap="round" stroke-linejoin="round"/>
<path d="M35.2719 14H35.2959" stroke="#D80000" stroke-width="2" stroke-linecap="round" stroke-linejoin="round"/>
</svg>
