<svg width="70" height="70" viewBox="0 0 70 70" fill="none" xmlns="http://www.w3.org/2000/svg">
<path d="M35 39.1709C36.195 39.1709 37.3784 38.9356 38.4824 38.4783C39.5865 38.0209 40.5897 37.3506 41.4347 36.5056C42.2797 35.6606 42.95 34.6574 43.4073 33.5534C43.8646 32.4493 44.1 31.266 44.1 30.0709C44.1 28.8759 43.8646 27.6926 43.4073 26.5885C42.95 25.4845 42.2797 24.4813 41.4347 23.6363C40.5897 22.7913 39.5865 22.121 38.4824 21.6636C37.3784 21.2063 36.195 20.9709 35 20.9709C32.5865 20.9709 30.2719 21.9297 28.5653 23.6363C26.8587 25.3429 25.9 27.6575 25.9 30.0709C25.9 32.4844 26.8587 34.799 28.5653 36.5056C30.2719 38.2122 32.5865 39.1709 35 39.1709V39.1709Z" stroke="url(#paint0_linear_25_5975)" stroke-width="1.5"/>
<path d="M10.5583 24.7624C16.3042 -0.495908 53.725 -0.466741 59.4417 24.7916C62.7958 39.6083 53.5792 52.1499 45.5 59.9083C42.6769 62.6311 38.9076 64.1526 34.9854 64.1526C31.0632 64.1526 27.2939 62.6311 24.4708 59.9083C16.4208 52.1499 7.20417 39.5791 10.5583 24.7624V24.7624Z" stroke="url(#paint1_linear_25_5975)" stroke-width="1.5"/>
<defs>
<linearGradient id="paint0_linear_25_5975" x1="35" y1="20.9709" x2="35" y2="39.1709" gradientUnits="userSpaceOnUse">
<stop stop-color="#D80000"/>
<stop offset="1" stop-color="#8E0D0D"/>
</linearGradient>
<linearGradient id="paint1_linear_25_5975" x1="35" y1="5.83325" x2="35" y2="64.1526" gradientUnits="userSpaceOnUse">
<stop stop-color="#D80000"/>
<stop offset="1" stop-color="#8E0D0D"/>
</linearGradient>
</defs>
</svg>
