<svg width="71" height="70" viewBox="0 0 71 70" fill="none" xmlns="http://www.w3.org/2000/svg">
<path d="M35.5 26.2499V5.83325L29.5833 11.6666M35.5 5.83325L41.4167 11.6666M5.8575 37.9166H18.9037C20.0279 37.9166 21.0337 38.5291 21.5367 39.5208L24.9979 46.3458C25.4877 47.3176 26.2429 48.1355 27.1783 48.7074C28.1138 49.2794 29.1926 49.5827 30.2933 49.5833H40.7363C41.837 49.5827 42.9158 49.2794 43.8512 48.7074C44.7867 48.1355 45.5418 47.3176 46.0317 46.3458L49.4929 39.5208C49.7388 39.0398 50.1149 38.6353 50.5796 38.3521C51.0443 38.069 51.5795 37.9182 52.1258 37.9166H65.0242" stroke="url(#paint0_linear_25_5969)" stroke-width="1.5" stroke-linecap="round" stroke-linejoin="round"/>
<path d="M20.7083 14.9624C10.2358 16.4791 5.91666 22.5457 5.91666 34.9999V43.7499C5.91666 58.3332 11.8333 64.1666 26.625 64.1666H44.375C59.1667 64.1666 65.0833 58.3332 65.0833 43.7499V34.9999C65.0833 22.5457 60.7642 16.4791 50.2917 14.9624" stroke="url(#paint1_linear_25_5969)" stroke-width="1.5" stroke-linecap="round" stroke-linejoin="round"/>
<defs>
<linearGradient id="paint0_linear_25_5969" x1="35.4408" y1="5.83325" x2="35.4408" y2="49.5833" gradientUnits="userSpaceOnUse">
<stop stop-color="#D80000"/>
<stop offset="1" stop-color="#8E0D0D"/>
</linearGradient>
<linearGradient id="paint1_linear_25_5969" x1="35.5" y1="14.9624" x2="35.5" y2="64.1666" gradientUnits="userSpaceOnUse">
<stop stop-color="#D80000"/>
<stop offset="1" stop-color="#8E0D0D"/>
</linearGradient>
</defs>
</svg>
