<svg width="70" height="70" viewBox="0 0 70 70" fill="none" xmlns="http://www.w3.org/2000/svg">
<path d="M64.0792 53.4624C64.0792 54.5124 63.8458 55.5916 63.35 56.6416C62.8542 57.6916 62.2125 58.6833 61.3667 59.6166C59.9375 61.1916 58.3625 62.3291 56.5833 63.0583C54.8333 63.7874 52.9375 64.1666 50.8958 64.1666C47.9208 64.1666 44.7417 63.4666 41.3875 62.0374C38.0333 60.6083 34.6792 58.6833 31.3542 56.2624C27.9653 53.7835 24.7674 51.0536 21.7875 48.0957C18.8381 45.1266 16.1178 41.9383 13.65 38.5583C11.2583 35.2333 9.33334 31.9083 7.93334 28.6124C6.53334 25.2874 5.83334 22.1083 5.83334 19.0749C5.83334 17.0916 6.18334 15.1958 6.88334 13.4458C7.58334 11.6666 8.69167 10.0333 10.2375 8.57492C12.1042 6.73742 14.1458 5.83325 16.3042 5.83325C17.1208 5.83325 17.9375 6.00825 18.6667 6.35825C19.425 6.70825 20.0958 7.23325 20.6208 7.99159L27.3875 17.5291C27.9125 18.2583 28.2917 18.9291 28.5542 19.5708C28.8167 20.1833 28.9625 20.7958 28.9625 21.3499C28.9625 22.0499 28.7583 22.7499 28.35 23.4208C27.9708 24.0916 27.4167 24.7916 26.7167 25.4916L24.5 27.7957C24.1792 28.1166 24.0333 28.4958 24.0333 28.9624C24.0333 29.1958 24.0625 29.3999 24.1208 29.6333C24.2083 29.8666 24.2958 30.0416 24.3542 30.2166C24.8792 31.1791 25.7833 32.4333 27.0667 33.9499C28.3792 35.4666 29.7792 37.0124 31.2958 38.5583C32.8708 40.1041 34.3875 41.5332 35.9333 42.8457C37.45 44.1291 38.7042 45.0041 39.6958 45.5291C39.8417 45.5874 40.0167 45.6749 40.2208 45.7624C40.4542 45.8499 40.6875 45.8791 40.95 45.8791C41.4458 45.8791 41.825 45.7041 42.1458 45.3833L44.3625 43.1958C45.0917 42.4666 45.7917 41.9124 46.4625 41.5624C47.1333 41.1541 47.8042 40.9499 48.5333 40.9499C49.0875 40.9499 49.6708 41.0666 50.3125 41.3291C50.9542 41.5916 51.625 41.9708 52.3542 42.4666L62.0083 49.3207C62.7667 49.8457 63.2917 50.4582 63.6125 51.1874C63.9042 51.9166 64.0792 52.6457 64.0792 53.4624V53.4624Z" stroke="url(#paint0_linear_25_5972)" stroke-width="1.5" stroke-miterlimit="10"/>
<path d="M53.9583 26.2499C53.9583 24.4999 52.5875 21.8166 50.5458 19.6291C48.6792 17.6166 46.2 16.0416 43.75 16.0416M64.1667 26.2499C64.1667 14.9624 55.0375 5.83325 43.75 5.83325" stroke="url(#paint1_linear_25_5972)" stroke-width="1.5" stroke-linecap="round" stroke-linejoin="round"/>
<defs>
<linearGradient id="paint0_linear_25_5972" x1="34.9563" y1="5.83325" x2="34.9563" y2="64.1666" gradientUnits="userSpaceOnUse">
<stop stop-color="#8E0D0D"/>
<stop offset="1" stop-color="#D80000"/>
</linearGradient>
<linearGradient id="paint1_linear_25_5972" x1="53.9583" y1="5.83325" x2="53.9583" y2="26.2499" gradientUnits="userSpaceOnUse">
<stop stop-color="#8E0D0D"/>
<stop offset="1" stop-color="#D80000"/>
</linearGradient>
</defs>
</svg>
